<?xml version="1.0" encoding="UTF-8"?>
<svg id="Layer_1" data-name="Layer 1" xmlns="http://www.w3.org/2000/svg" viewBox="0 0 792 612">
  <defs>
    <style>
      .cls-1 {
        fill: #fff;
      }

      .cls-2 {
        fill: #c5c8cf;
      }

      .cls-3 {
        fill: #979ca4;
      }

      .cls-4 {
        fill: #9fa5ac;
      }

      .cls-5 {
        fill: #a1a6ac;
      }
    </style>
  </defs>
  <path class="cls-2" d="M743.97,316.01l-31.15,159.64c-.18.93-.6,1.78-1.22,2.5l-11.1,12.8c-.93,1.09-1.4,2.49-1.29,3.9l.83,11.64c.04.45,0,.9-.07,1.34l-1.27,6.99c-.41,2.29-2.27,4.06-4.6,4.37-9.48,1.26-25.97,1.83-43.85-5.8-9.97-4.26-17.46-9.82-22.64-14.51-1.34-1.2-2-2.95-1.9-4.75.01-.29.02-.59.02-.87v-.11c0-.17,0-.34-.01-.51,0-.15-.01-.29-.02-.44-.15-2.12-.74-4.25-1.79-6.49-.18-.4-.38-.81-.61-1.22-.18-.37-.38-.72-.59-1.1-.1-.15-.18-.31-.28-.46-2.72-4.6-7.14-9.91-13.25-16.98-.6-.68-1.2-1.38-1.82-2.09-.02-.02-.05-.06-.07-.09-.5-.59-1.02-1.17-1.54-1.78-.29-.32-.57-.65-.85-.98-.54-.61-1.07-1.22-1.62-1.85-1.45-1.66-2.96-3.42-4.55-5.27-.77-.88-1.55-1.79-2.34-2.72-.01-.02-.04-.05-.06-.07-.81-.94-1.62-1.89-2.45-2.87-.44-.52-.88-1.05-1.33-1.59-.85-1.01-1.73-2.05-2.62-3.12-1.04-1.24-2.11-2.53-3.18-3.86-.68-.81-1.35-1.62-2.03-2.46-3.53-4.31-7.28-9.02-11.27-14.14-6-7.73-11.46-15.06-16.34-21.81-.4-.55-.79-1.1-1.18-1.65-4.15-5.78-7.87-11.14-11.15-15.96-.51-.76-1.01-1.5-1.5-2.22-1.4-2.07-2.71-4.05-3.94-5.9-.1-.13-.2-.28-.29-.41-9.19-12.07-18.39-24.12-27.57-36.19-.43-.56-.87-1.13-1.29-1.7-1.82-2.38-1.33-5.76,1.06-7.56.63-.49,1.31-.98,2-1.46.01-.01.04-.02.05-.04,1.37-.98,2.85-1.95,4.44-2.93.48-.28.96-.57,1.46-.85,2.59-1.49,5.43-2.93,8.54-4.18.38-.16.76-.31,1.15-.45.45-.18.92-.35,1.39-.51,1.02-.38,2.07-.72,3.15-1.05,1.21-.37,2.43-.7,3.7-1,19.36-4.64,32.92,1.61,60.48,6.23,0,0,21.7,3.61,52.68,4.15,2.56.04,5.27.04,8.14-.04.51-.02,1.04-.04,1.56-.06.41-.01.84-.02,1.27-.05,1.32-.05,2.67-.12,4.06-.21.05,0,.11-.01.17-.01,2.06-.13,4.18-.31,6.37-.52,2.93-.28,5.97-.63,9.13-1.1.68-.1,1.39-.2,2.1-.32,6.62-1.01,13.73-2.45,21.26-4.4,1.31-.34,2.62-.7,3.95-1.06.65-.18,1.31-.37,1.96-.56,1.05-.31,2.11-.61,3.17-.94.78-.23,1.57-.48,2.38-.73,1.71-.54,3.42-1.1,5.16-1.68.01,0,.02-.01.04-.01,5.08-1.71,10.31-3.66,15.7-5.88,3.94-1.62,8.11,1.82,7.3,6.01Z"/>
  <path class="cls-5" d="M781.05,126.18c-8.99,46.02-18,92.05-27,138.07l-8.14,41.75-25.97-5.06-138.69-27.07-200.91-30.38c-11.61-1.01-22.94-1.4-33.93-1.22h-.23c-3.43.05-6.83.17-10.2.34-3.11.15-6.19.34-9.24.6-.49.04-.98.07-1.46.12-1.43.11-2.84.24-4.26.38-.04.01-.06.01-.09.01-3.27.33-6.49.7-9.69,1.12-1.27.17-2.54.35-3.81.54-.67.1-1.34.2-2,.31-1.54.23-3.07.48-4.6.74-.76.12-1.51.26-2.27.39-15.45-10.57-40.58-32.09-46.96-61.99-6.14-28.74,9.02-66.56,35.1-91.01,53.25-18.65,98.04-23.25,120.62-24.73,15.51-2.49,38.53-5.28,66.43-5.19,51.53.17,85.65,10.08,114.19,15.57,36.48,7.03,89.31,11.76,158.47.12,4.58.98,12.4,3.36,19.63,9.71,15.49,13.59,15.1,33.73,14.99,36.88Z"/>
  <path class="cls-3" d="M506.57,414.76c-1.02,3.12-3.69,11.13-8.66,19.54-18.67,31.58-47.33,30.65-53.3,53.03-.93,3.5-2.35,11.47-8.93,18.26-1.68,1.74-4.54,4.77-9.66,6.75-21.61,8.38-56.77,18.77-100.7,17.65-28.25-.72-51.94-5.99-69.56-11.42-14.77,7.03-37.49,16.27-66.44,21.81-39.26,7.51-78.23,14.97-114.13-5.79-45.33-26.21-56.45-80.47-60.27-99.07-6.17-30.1-3.17-55.71,0-71.63,13.97-38.76,50.93-124.78,139.11-196.21,45.04-36.48,91.41-59.42,132.69-73.89-26.09,24.45-41.24,62.27-35.11,91.02,6.38,29.89,31.52,51.42,46.96,61.98-83.27,14.91-139.56,63.99-146.25,115.19-5.72,43.82,25.7,82.95,42.2,100.53,6.86,1.7,9.9.42,11.41-1.04,8.82-8.49-19.95-36.47-16.61-71.63,1.64-17.18,10.25-28.9,21.81-44.64,18.41-25.07,40.99-40.05,58.13-48.79,17.17-8.1,49.17-20.26,90.27-18.92,65.39,2.15,109.66,37.05,123.59,49.02,5.64,5.12,27.51,26.04,28.74,54.87.63,14.78-4.23,30.16-5.28,33.36Z"/>
  <path class="cls-4" d="M539.92,522.89c-2.34-.2-4.65-.42-6.92-.63-37.78-3.55-72.26-6.63-106.98-9.9,42.95-48.72,64.77-54.66,76.82-49.83,19.96,7.99,11.74,44.98,37.08,60.36Z"/>
  <path class="cls-1" d="M745.92,306l-25.97-5.06-138.69-27.07-200.64-30.33c-.18-.02-.35-.05-.54-.06-11.52-1-22.75-1.38-33.66-1.21h-.23c-3.44.06-6.83.17-10.2.34-3.11.16-6.19.35-9.24.6-.49.04-.98.07-1.46.12-1.43.12-2.84.24-4.26.38-.04.01-.06.01-.09.01-3.27.33-6.49.71-9.69,1.12-1.27.17-2.54.35-3.81.54-.67.1-1.34.2-2,.31-1.54.23-3.07.48-4.6.74-84.52,14.41-141.77,63.9-148.53,115.57-5.53,42.35,23.63,80.33,40.49,98.7,1.16,1.27,2.72,2.12,4.42,2.39,4.99.78,7.41-.34,8.7-1.6,8.82-8.49-19.94-36.47-16.6-71.63,1.63-17.17,10.25-28.9,21.8-44.64,18.41-25.06,40.99-40.04,58.13-48.79,17.18-8.1,49.18-20.26,90.27-18.92,63.92,2.11,107.64,35.49,122.6,48.18.65.56,1.21,1.22,1.65,1.95,26.06,43.63,25.32,70.8,18.02,88.17-17.54,41.87-84.47,54.41-81.64,83.72,0,.06.01.11.01.17.7,6.58,8.92,9.15,13.41,4.29,38-41.03,57.95-45.99,69.27-41.47,19.46,7.8,12.11,43.19,35.26,59.2,1.12.77,2.42,1.23,3.77,1.33,16.85,1.34,35.5,1.45,55.69-7.58,11.26-5.03,19.75-11.46,25.57-16.65,1.57-1.43,2.57-3.42,2.59-5.54v-.11c0-.17,0-.34-.01-.51,0-.15-.01-.29-.02-.44-.15-2.12-.74-4.25-1.79-6.49-.18-.4-.38-.81-.61-1.22-.18-.37-.38-.72-.59-1.1-.1-.15-.18-.31-.28-.46-2.72-4.6-7.14-9.91-13.25-16.98-.6-.68-1.2-1.38-1.82-2.09-.02-.02-.05-.06-.07-.09-.5-.59-1.02-1.17-1.54-1.78-.29-.32-.57-.65-.85-.98-.54-.61-1.07-1.22-1.62-1.85-1.45-1.66-2.96-3.42-4.55-5.27-.77-.88-1.55-1.79-2.34-2.72-.01-.02-.04-.05-.06-.07-.81-.94-1.62-1.89-2.45-2.87-.44-.52-.88-1.05-1.33-1.59-.85-1.01-1.73-2.05-2.62-3.12-1.04-1.24-2.11-2.53-3.18-3.86-.68-.81-1.35-1.62-2.03-2.46-3.53-4.31-7.28-9.02-11.27-14.14-6-7.73-11.46-15.06-16.34-21.81-.4-.55-.79-1.1-1.18-1.65-4.15-5.78-7.87-11.14-11.15-15.96-.51-.76-1.01-1.5-1.5-2.22-1.4-2.07-2.71-4.05-3.94-5.9-.1-.13-.2-.28-.29-.41-9.14-11.98-18.26-23.96-27.4-35.94-.06-.09-.12-.16-.17-.24-2.43-3.45-1.67-8.25,1.77-10.72.01-.01.04-.02.05-.04,1.37-.98,2.85-1.95,4.44-2.93.48-.28.96-.57,1.46-.85,2.59-1.49,5.43-2.93,8.54-4.18.38-.15.76-.31,1.15-.45.45-.18.92-.35,1.39-.51,1.02-.38,2.07-.72,3.15-1.05,1.21-.37,2.43-.7,3.7-1,19.36-4.64,32.92,1.61,60.48,6.23,0,0,21.7,3.61,52.68,4.15,2.56.04,5.27.04,8.14-.04.51-.02,1.04-.04,1.56-.06.41-.01.84-.02,1.27-.05,1.33-.05,2.67-.12,4.06-.21.05,0,.11-.01.17-.01,2.06-.13,4.18-.31,6.37-.52,2.93-.28,5.97-.63,9.13-1.1.7-.1,1.4-.21,2.1-.32,6.62-1.01,13.73-2.45,21.26-4.4,1.31-.34,2.62-.7,3.95-1.06.66-.18,1.31-.37,1.96-.56,1.05-.31,2.11-.61,3.17-.94.79-.23,1.59-.48,2.38-.73,1.71-.54,3.42-1.1,5.16-1.68.01,0,.02-.01.04-.01,5.08-1.71,10.31-3.66,15.7-5.88,3.94-1.62,8.11,1.82,7.3,6.01l1.95-10.02Z"/>
</svg>
